<?xml version="1.0" encoding="utf-8"?>
<svg viewBox="0 0 424.3 354.8" xmlns="http://www.w3.org/2000/svg">

    <style>
        line {
            stroke: #7F7F7F;
            stroke-width: 2;
        }

        circle {
            fill: #353839;
            stroke: #7F7F7F;
            stroke-width: 2;
        }
    </style>

    <line x1="34.022" y1="64.697" x2="125.689" y2="16.781"/>
    <line x1="31.244" y1="70.253" x2="17.355" y2="195.253"/>
    <line x1="12.494" y1="191.086" x2="90.272" y2="239.003"/>
    <line x1="120.827" y1="16.781" x2="267.355" y2="23.031"/>
    <line x1="361.105" y1="63.308" x2="261.8" y2="19.558"/>
    <line x1="406.244" y1="182.753" x2="361.8" y2="59.142"/>
    <line x1="399.994" y1="184.836" x2="330.55" y2="283.447"/>
    <line x1="322.216" y1="292.475" x2="286.8" y2="337.614"/>
    <line x1="324.994" y1="277.197" x2="229.161" y2="262.614"/>
    <line x1="276.383" y1="334.142" x2="227.772" y2="254.975"/>
    <line x1="339.577" y1="184.142" x2="222.216" y2="266.086"/>
    <line x1="209.716" y1="166.781" x2="331.939" y2="184.142"/>
    <line x1="206.939" y1="159.142" x2="230.55" y2="270.253"/>
    <line x1="220.133" y1="256.364" x2="99.3" y2="239.697"/>
    <line x1="28.466" y1="195.253" x2="201.383" y2="167.475"/>
    <line x1="415.272" y1="182.058" x2="347.216" y2="184.836"/>
    <line x1="287.494" y1="104.975" x2="346.522" y2="193.864"/>
    <line x1="356.939" y1="70.947" x2="282.633" y2="98.725"/>
    <line x1="263.883" y1="14.003" x2="279.855" y2="107.058"/>
    <line x1="124.3" y1="9.142" x2="152.077" y2="91.086"/>
    <line x1="24.994" y1="188.308" x2="151.383" y2="97.336"/>
    <line x1="142.355" y1="91.781" x2="22.911" y2="65.392"/>
    <line x1="161.105" y1="88.309" x2="271.522" y2="17.475"/>
    <line x1="199.3" y1="157.058" x2="157.633" y2="99.42"/>
    <line x1="283.328" y1="97.337" x2="214.577" y2="160.531"/>
    <line x1="334.716" y1="293.17" x2="341.661" y2="334.142"/>

    <circle cx="32.285" cy="65.045" r="17"/>
    <circle cx="123.259" cy="18.015" r="17"/>
    <circle cx="152.078" cy="92.32" r="17"/>
    <circle cx="18.05" cy="193.709" r="17"/>
    <circle cx="91.661" cy="240.237" r="17"/>
    <circle cx="229.161" cy="261.766" r="17"/>
    <circle cx="406.244" cy="181.21" r="17"/>
    <circle cx="341.66" cy="186.765" r="17"/>
    <circle cx="281.938" cy="100.654" r="17"/>
    <circle cx="361.105" cy="63.153" r="17"/>
    <circle cx="265.966" cy="22.182" r="17"/>
    <circle cx="286.105" cy="336.766" r="17"/>
    <circle cx="329.161" cy="284.682" r="17"/>
    <circle cx="207.633" cy="164.158" r="17"/>

</svg>